<?xml version="1.0" encoding="UTF-8"?>
<svg id="Camada_1" xmlns="http://www.w3.org/2000/svg" version="1.1" viewBox="0 0 8.25 13.51">
  <!-- Generator: Adobe Illustrator 30.5.1, SVG Export Plug-In . SVG Version: 2.1.4 Build 3)  -->
  <path d="M7.77,7.39l-.09-.38c-.14-.56-.6-1.3-.91-1.85l-.53-.94-.75-1.33.04.28-.15-.28h.1s-.19-.38-.19-.38l-.03.13-.45-.89-.15-.36-.56-1.39-.75,1.71-.18.44-.72,1.43-.48.76c-.28.37-.46.77-.69,1.17-.38.67-.71,1.34-.97,2.08C.17,8.06-.01,8.53,0,9.03v.43s.13.94.13.94c.05.37.15.75.37,1.05l.51.68c.36.48.99.89,1.57,1.07.26.08.52.24.81.19.15-.02.25,0,.32.11.2-.07.41-.16.61-.06l-.22.07c.52.04.97-.05,1.43-.21.63-.23,1.16-.5,1.56-1.08l.19-.27c.12-.09.26-.15.32-.28l.31-.59-.09-.04.2-.46.08-.34c.06-.28.16-.56.14-.83-.04-.71-.2-1.36-.47-2h0ZM4.7,13.43c.02-.06.03-.09.06-.09l.11.02-.17.06h0Z"/>
</svg>