<?xml version="1.0" encoding="UTF-8"?>
<svg id="Camada_1" xmlns="http://www.w3.org/2000/svg" version="1.1" viewBox="0 0 17.05 27.94">
  <!-- Generator: Adobe Illustrator 30.5.1, SVG Export Plug-In . SVG Version: 2.1.4 Build 3)  -->
  <path d="M16.07,15.28l-.2-.79c-.28-1.16-1.25-2.69-1.88-3.82l-1.09-1.95-1.54-2.75.09.59-.31-.59.22-.02-.39-.76-.07.27-.92-1.85-.31-.74-1.17-2.88-1.54,3.54-.37.91-1.5,2.96-.99,1.56c-.57.76-.95,1.58-1.43,2.41-.8,1.39-1.48,2.77-2,4.3C.34,16.66-.03,17.63,0,18.67l.03.88.25,1.95c.1.77.3,1.56.77,2.18l1.06,1.41c.75,1,2.04,1.83,3.24,2.21.54.17,1.08.5,1.67.4.3-.05.51.01.67.22.41-.14.85-.34,1.26-.13l-.45.14c1.07.08,2-.1,2.95-.43,1.31-.47,2.41-1.02,3.23-2.22l.39-.57c.26-.19.53-.32.67-.59l.64-1.23-.18-.09.41-.95.16-.69c.13-.58.33-1.15.3-1.72-.09-1.47-.42-2.8-.98-4.14h0ZM9.71,27.77c.04-.12.07-.19.12-.18l.23.05-.35.13h0Z"/>
</svg>