<?xml version="1.0" encoding="UTF-8"?>
<svg id="Camada_1" xmlns="http://www.w3.org/2000/svg" version="1.1" viewBox="0 0 474.68 200.21">
  <!-- Generator: Adobe Illustrator 30.5.1, SVG Export Plug-In . SVG Version: 2.1.4 Build 3)  -->
  <path d="M230.98,176.31l-5.79-24.54-2.72-12.25-5.06-19.95c-.99-3.92-1.7-7.54-4.19-10.98,3.05-1.83,6.67-3.47,8.54-6.42l2.67-4.22c5.25-8.3,7.89-19.15,7.66-28.95-2.34-1.44-1.99-4.15-.59-5.76,1.25-7.76,1.95-15.19-.54-22.42-.56-1.63-.88-2.56-.67-4.36.26-2.28-1.37-4.77-2.16-6.81-2.11-5.49-3.92-10.82-8.86-14.57.36-.54.94-1.08.63-1.31l-1.58-1.13c-3.03-2.18-6.78-4.59-10.69-5.68-5.61-1.56-11.1-3.82-17.07-3.78l-34.34.25-24.59-.45c-2.36-.04-4.58,1-4.93,3.72-.8,6.28-.25,12.65-.34,19.16l-.09,6.3.55,11.38-.12,9.73-.41,10.81.2,13.33v23.25s-.21,9.16-.21,9.16c-.16,6.89-.92,13.46-.06,20.26,1.16,9.19.1,18.34-.42,27.67-.3,5.25.53,10.3.53,15.44v17.18c0,1.65.26,3.7,1.25,4.87.78.91,3.12,1.45,4.56,1.39l12.67-.49,18.68.36c1.25.02,3.75-1.17,3.84-2.26l.44-5.33-.56-20.03-.12-8.28-.36-10.18c-.83-6.46-1.02-12.27-.06-18.74l.16-11.03,8.98-.18c1.54-.03,3.56,1.3,3.9,3.11l8.59,46.4,5.03,22.57c.77,3.46,3.65,5.03,6.93,4.97l14.87-.29h7.42c3.4-.01,6.84.64,10-.19,3.1-.81,3.44-3.65,2.71-6.16l-4.27-14.59ZM230.64,69.8c1.38,2.1,1.22,4.03-.04,5.8l.04-5.8ZM186.27,85.17c-4.27,3.22-9.32,2.95-14.01,2.34l-4.42-.57-1.28-11.42c1.19-7.23,1.78-14.33,1.58-21.66l-.42-15.52c10.53-.25,20.3-1.81,22.68,8.91,1.52,10.08,2.25,33.1-4.15,37.93Z"/>
  <path d="M112.85,81.83c.57-6.28.03-12.07-.45-18.33l-1.47-19.35c-.34-4.42-2.11-8.7-3.63-12.82-3.03-8.21-7.68-15.4-14.8-20.7-3.07-.96-5.94-2.1-8.81-3.74l-11.45-2.86c-4.95-1.22-9.82-1.33-14.88-.42-4.46-.98-8.72-.85-13.14-.4l-19.67.38c-.04-.48.06-1.39-.12-1.22-2.2,2.06-6.03,2.12-9.53,1.47l5.53-1.12-.5-.37-14.43.23C2.54,2.62-.05,3.89.07,7.71c.05,1.5.12,4.45.55,5.8.79,2.54.82,4.31-.21,6.69l.12,3.97.45,14.8c.06,2.05.9,4.75.85,6.84l-.68,34.86.48,14.32-.58,19.82-.94,8.69c.16,7.63,1.18,14.73,1.83,22.4.14,1.63-1.6,3.79.81,5.1-1.68.89-1.91,1.69-2.02,3.37-.28,4.38-1.2,8.83-.46,13.09l1.69,9.85c-1.68,1.98-1.78,4.5-.44,6.85-.96,3.42-1.89,6.67-.7,10.24,2.18,6.49,22.88.63,29.42,2.05,3.01.65,4.74.5,7.9-.11,2.43-.47,6.08.84,8.72.54,1.62-.18,3.63-.73,4.98-.44,2.13.46,3.52.31,5.81.39,11.15.37,21.95-.75,31.43-6.05,5.64-3.15,10.13-6.96,13.26-12.51,1.21-.52,2.74-1.75,3.27-3.08,2.04-5.13,3.87-10.03,5.09-15.41.99-4.34.53-8.9.74-13.37l.66-14.28.96-11.46.53-9.74c.21-3.87-.66-7.89-1-11.82-.49-5.73-.29-11.44.24-17.25ZM70.67,144.13c-.45,7.92-3.48,15.55-11.02,17.01l-16.54-.48.5-14.29-.34-12.89-.81-12.05c1.91-1.97.61-4.11.53-6.2l-.38-9.55c-.29-7.24-.29-14.24-.1-21.56l.76-29.65c.11-4.14.98-8.67-.28-12.53-.28-.86-1.6-2.54-1.12-3.3l9.8-.27c3.22-.09,6.69.43,9.78,1.06,9.84,2.01,9.26,13.67,9.5,22.49.77,27.57,1.29,54.72-.28,82.22Z"/>
  <path d="M352.56,109.49l-1.4-5.69c-2.04-8.31-8.93-19.31-13.48-27.39l-7.84-13.95-11.05-19.69.63,4.22-2.2-4.21,1.55-.17-2.83-5.44-.47,1.97-6.62-13.23-2.2-5.27-8.37-20.64-11.04,25.4-2.66,6.51-10.74,21.2-7.07,11.21c-4.08,5.46-6.83,11.34-10.22,17.29-5.7,9.99-10.58,19.86-14.31,30.84-2.36,6.96-5.03,13.89-4.8,21.35l.2,6.3,1.8,13.97c.71,5.52,2.17,11.16,5.51,15.61l7.6,10.11c5.37,7.14,14.64,13.13,23.19,15.84,3.87,1.23,7.74,3.57,11.99,2.84,2.15-.37,3.69.08,4.79,1.56,2.96-1.02,6.08-2.41,9.01-.96l-3.24,1.01c7.65.59,14.34-.69,21.12-3.1,9.37-3.34,17.26-7.34,23.14-15.93l2.78-4.06c1.83-1.38,3.82-2.29,4.81-4.2l4.58-8.81-1.32-.64,2.91-6.84,1.14-4.98c.95-4.14,2.38-8.23,2.13-12.33-.63-10.51-2.99-20.08-6.99-29.69ZM307.04,199.02c.26-.86.51-1.39.86-1.31l1.62.37-2.48.95Z"/>
  <path d="M474.68,60.14l-.26-9.5-.27-6.27c-.21-4.75-1.26-9.71-2.54-14.38-1.57-5.73-5.33-10.08-8.47-14.88-1.12-1.71-1.71-3.94-3.57-5.11-5.65-3.56-11.6-6.25-18.39-6.68l-9.43-.6-8.04-.23h-9.13s-5.84.23-5.84.23l-6.1.04-10.34.31-16.63.29c-1.51.03-3.58.56-4.43,1.67-.77,1-1.03,2.97-.98,4.43l.32,9.54.92,23.16-.92,21.41-.22,39.88.02,6.41-.09,12.46.88,10.36.03,19.43-.32,23.28-.54,5.26-.89,11.51c-.53,6.88,8.87,6.26,16.65,5.09l-2.62-1.12,6.53-.19,18.94.18c1.81.02,2.71-2.37,2.66-4.01l-.5-16.59.12-14.12c.74-1.06,1.29-2.3,1.22-3.75l-1.21,2.11-.51-9.03,1.58,2.79.52-5.97-.18-15.96,7.77.31c.28.01,1.46-.46,1.4-.21l-.32,1.36c9.9.41,19.3-.84,28.82-3.4,12.54-5.97,20.15-15.81,22.55-29.49l1.67-9.5c.18-1-.31-2.84-.79-3.81l.94-26.69ZM410.91,136.61l.7,6.87c-1.17-2.12-1.33-4.5-.7-6.87ZM411.27,150.4l-.16-3.18.49-.31.16,3.18-.49.31ZM433.26,86.77c-.92,4.34-2.96,9.38-8,10.35l-7.4.04-6.38.14.53-9.26.44-7.61-.58-.65-.3,4.4-.56-.38.19-8.2.73-6.36c.51-10.39.92-20.2.1-30.68l11.24.35c1.76.05,4.96,1.04,6.46,2.08,2.5,1.73,4.03,5.31,4.24,8.3l1.29,18.21c.47,6.62-.64,12.73-2.02,19.27Z"/>
</svg>