<?xml version="1.0" encoding="UTF-8"?>
<svg id="Camada_1" xmlns="http://www.w3.org/2000/svg" version="1.1" viewBox="0 0 153.33 251.27">
  <!-- Generator: Adobe Illustrator 30.5.1, SVG Export Plug-In . SVG Version: 2.1.4 Build 3)  -->
  <path d="M144.47,137.39l-1.76-7.14c-2.56-10.43-11.21-24.23-16.92-34.37l-9.84-17.51-13.87-24.71.79,5.3-2.76-5.28,1.94-.21-3.55-6.83-.59,2.47-8.31-16.6-2.76-6.61L76.36,0l-13.85,31.87-3.34,8.17-13.48,26.6-8.87,14.07c-5.12,6.85-8.57,14.23-12.82,21.7-7.15,12.54-13.28,24.92-17.96,38.7C3.08,149.84-.27,158.54.02,167.9l.25,7.91,2.26,17.53c.89,6.93,2.72,14,6.91,19.59l9.54,12.69c6.74,8.96,18.37,16.48,29.1,19.88,4.86,1.54,9.71,4.48,15.05,3.56,2.7-.46,4.63.1,6.01,1.96,3.71-1.28,7.63-3.02,11.31-1.2l-4.07,1.27c9.6.74,17.99-.87,26.5-3.89,11.76-4.19,21.66-9.21,29.04-19.99l3.49-5.09c2.3-1.73,4.79-2.87,6.04-5.27l5.75-11.06-1.66-.8,3.65-8.58,1.43-6.25c1.19-5.2,2.99-10.33,2.67-15.47-.79-13.19-3.75-25.2-8.77-37.26h-.04v-.04ZM87.35,249.74c.33-1.08.64-1.74,1.08-1.64l2.03.46-3.11,1.19h0Z"/>
</svg>